<svg width="23" height="22" viewBox="0 0 23 22" fill="none" xmlns="http://www.w3.org/2000/svg">
<g clip-path="url(#clip0_87_1786)">
<path d="M22.5 11C22.5 4.92976 17.5702 0 11.5 0C5.42976 0 0.5 4.92976 0.5 11C0.5 17.0702 5.42976 22 11.5 22C17.5702 22 22.5 17.0702 22.5 11ZM21.6473 11C21.6487 12.333 21.3872 13.6531 20.8777 14.8848C20.3682 16.1166 19.6208 17.2358 18.6783 18.1783C17.7358 19.1208 16.6166 19.8682 15.3848 20.3777C14.1531 20.8872 12.833 21.1487 11.5 21.1473C5.88736 21.1473 1.32456 16.6126 1.32456 11C1.32456 5.38736 5.88736 0.85272 11.5 0.85272C12.833 0.851331 14.1531 1.11285 15.3848 1.62231C16.6166 2.13176 17.7358 2.87915 18.6783 3.82169C19.6208 4.76423 20.3682 5.88341 20.8777 7.11516C21.3872 8.34691 21.6487 9.66705 21.6473 11ZM13.7 8.8H9.93272V9.68H12.16L8.36456 13.4754L8.99816 14.08L12.82 10.2573V12.5673H13.7V8.8Z" fill="white"/>
</g>
<defs>
<clipPath id="clip0_87_1786">
<rect width="22" height="22" fill="white" transform="matrix(0 1 -1 0 22.5 0)"/>
</clipPath>
</defs>
</svg>
