<svg width="14" height="18" viewBox="0 0 14 18" fill="none" xmlns="http://www.w3.org/2000/svg">
<path d="M7 0C3.63462 0 0.90625 2.72837 0.90625 6.09375C0.90625 8.77703 4.78066 14.6709 6.35081 16.95C6.70506 17.4639 7.29494 17.4639 7.64919 16.95C9.21934 14.6705 13.0938 8.77744 13.0938 6.09375C13.0938 2.72837 10.3654 0 7 0ZM7 2.84375C7.86195 2.84375 8.6886 3.18616 9.2981 3.79565C9.90759 4.40515 10.25 5.2318 10.25 6.09375C10.25 6.52055 10.1659 6.94316 10.0026 7.33747C9.83928 7.73178 9.59989 8.09006 9.2981 8.39185C8.99631 8.69364 8.63803 8.93303 8.24372 9.09636C7.84941 9.25969 7.4268 9.34375 7 9.34375C6.13805 9.34375 5.3114 9.00134 4.7019 8.39185C4.09241 7.78235 3.75 6.9557 3.75 6.09375C3.75 5.2318 4.09241 4.40515 4.7019 3.79565C5.3114 3.18616 6.13805 2.84375 7 2.84375Z" fill="#006D77"/>
</svg>
