<svg width="40" height="41" viewBox="0 0 40 41" fill="none" xmlns="http://www.w3.org/2000/svg">
<rect y="0.0273438" width="40" height="40" rx="20" fill="#FAF3DD"/>
<path d="M29.75 20.0272C29.7469 22.4101 28.8726 24.7097 27.2917 26.4928C25.7109 28.2759 23.5326 29.4193 21.1671 29.7078C21.1145 29.7138 21.0611 29.7085 21.0107 29.6924C20.9602 29.6762 20.9137 29.6495 20.8743 29.6141C20.8348 29.5787 20.8034 29.5353 20.782 29.4868C20.7605 29.4383 20.7496 29.3858 20.75 29.3328V22.2772H23C23.1028 22.2774 23.2045 22.2565 23.2989 22.2157C23.3933 22.175 23.4783 22.1153 23.5487 22.0403C23.619 21.9653 23.6732 21.8766 23.7078 21.7798C23.7424 21.683 23.7568 21.5801 23.75 21.4775C23.7334 21.2847 23.6444 21.1052 23.5009 20.9753C23.3574 20.8454 23.1701 20.7746 22.9765 20.7772H20.75V18.5272C20.75 18.1294 20.908 17.7478 21.1893 17.4665C21.4706 17.1852 21.8521 17.0272 22.25 17.0272H23.75C23.8528 17.0274 23.9545 17.0065 24.0489 16.9657C24.1433 16.925 24.2283 16.8653 24.2987 16.7903C24.369 16.7153 24.4232 16.6266 24.4578 16.5298C24.4924 16.433 24.5068 16.3301 24.5 16.2275C24.4834 16.0343 24.3941 15.8546 24.2502 15.7246C24.1063 15.5947 23.9185 15.5241 23.7246 15.5272H22.25C21.4543 15.5272 20.6912 15.8433 20.1286 16.4059C19.566 16.9685 19.25 17.7315 19.25 18.5272V20.7772H17C16.8971 20.777 16.7954 20.7979 16.701 20.8386C16.6066 20.8794 16.5216 20.9391 16.4513 21.0141C16.3809 21.0891 16.3268 21.1778 16.2921 21.2746C16.2575 21.3714 16.2431 21.4743 16.25 21.5769C16.2665 21.7701 16.3558 21.9498 16.4997 22.0798C16.6436 22.2097 16.8314 22.2803 17.0253 22.2772H19.25V29.3347C19.2503 29.3876 19.2394 29.44 19.218 29.4884C19.1967 29.5368 19.1653 29.5802 19.126 29.6156C19.0866 29.651 19.0403 29.6777 18.9899 29.6939C18.9395 29.7101 18.8863 29.7155 18.8337 29.7097C16.405 29.4139 14.1758 28.2171 12.5874 26.3561C10.999 24.4952 10.1672 22.1057 10.2565 19.6606C10.444 14.5981 14.5446 10.4825 19.6109 10.2856C20.9225 10.2348 22.231 10.4491 23.4579 10.9156C24.6848 11.3821 25.8051 12.0913 26.7516 13.0007C27.6981 13.9102 28.4515 15.0012 28.9667 16.2085C29.4819 17.4158 29.7483 18.7146 29.75 20.0272Z" fill="#2F797B"/>
</svg>
