<svg width="40" height="41" viewBox="0 0 40 41" fill="none" xmlns="http://www.w3.org/2000/svg">
<rect y="0.0273438" width="40" height="40" rx="20" fill="#FAF3DD"/>
<path d="M24.5 10.2773H15.5C14.1081 10.2788 12.7736 10.8324 11.7893 11.8167C10.8051 12.8009 10.2515 14.1354 10.25 15.5273V24.5273C10.2515 25.9193 10.8051 27.2538 11.7893 28.238C12.7736 29.2223 14.1081 29.7759 15.5 29.7773H24.5C25.8919 29.7759 27.2264 29.2223 28.2107 28.238C29.1949 27.2538 29.7485 25.9193 29.75 24.5273V15.5273C29.7485 14.1354 29.1949 12.8009 28.2107 11.8167C27.2264 10.8324 25.8919 10.2788 24.5 10.2773ZM20 24.5273C19.11 24.5273 18.24 24.2634 17.4999 23.769C16.7599 23.2745 16.1831 22.5717 15.8425 21.7494C15.5019 20.9272 15.4128 20.0224 15.5865 19.1494C15.7601 18.2765 16.1887 17.4747 16.818 16.8454C17.4474 16.216 18.2492 15.7874 19.1221 15.6138C19.995 15.4402 20.8998 15.5293 21.7221 15.8699C22.5443 16.2105 23.2471 16.7873 23.7416 17.5273C24.2361 18.2673 24.5 19.1373 24.5 20.0273C24.4988 21.2204 24.0243 22.3643 23.1806 23.208C22.337 24.0516 21.1931 24.5261 20 24.5273ZM25.625 15.5273C25.4025 15.5273 25.185 15.4614 25 15.3377C24.815 15.2141 24.6708 15.0384 24.5856 14.8329C24.5005 14.6273 24.4782 14.4011 24.5216 14.1829C24.565 13.9646 24.6722 13.7642 24.8295 13.6068C24.9868 13.4495 25.1873 13.3424 25.4055 13.299C25.6238 13.2556 25.85 13.2778 26.0555 13.363C26.2611 13.4481 26.4368 13.5923 26.5604 13.7773C26.684 13.9623 26.75 14.1798 26.75 14.4023C26.75 14.7007 26.6315 14.9869 26.4205 15.1978C26.2095 15.4088 25.9234 15.5273 25.625 15.5273ZM23 20.0273C23 20.6207 22.8241 21.2007 22.4944 21.6941C22.1648 22.1874 21.6962 22.5719 21.1481 22.799C20.5999 23.026 19.9967 23.0855 19.4147 22.9697C18.8328 22.8539 18.2982 22.5682 17.8787 22.1487C17.4591 21.7291 17.1734 21.1946 17.0576 20.6126C16.9419 20.0307 17.0013 19.4275 17.2284 18.8793C17.4554 18.3311 17.8399 17.8626 18.3333 17.5329C18.8266 17.2033 19.4067 17.0273 20 17.0273C20.7956 17.0273 21.5587 17.3434 22.1213 17.906C22.6839 18.4686 23 19.2317 23 20.0273Z" fill="#2F797B"/>
</svg>
