<svg width="40" height="41" viewBox="0 0 40 41" fill="none" xmlns="http://www.w3.org/2000/svg">
<rect y="0.0273438" width="40" height="40" rx="20" fill="#FAF3DD"/>
<path d="M31.0306 15.3079L28.2274 18.111C27.6612 24.6754 22.1252 29.7773 15.4999 29.7773C14.1387 29.7773 13.0165 29.5617 12.1643 29.136C11.4771 28.792 11.1959 28.4235 11.1255 28.3185C11.0629 28.2245 11.0222 28.1175 11.0067 28.0056C10.9911 27.8937 11.0011 27.7797 11.0358 27.6721C11.0705 27.5646 11.1291 27.4662 11.2071 27.3845C11.2852 27.3028 11.3807 27.2397 11.4865 27.2001C11.5109 27.1907 13.759 26.3273 15.1868 24.6838C14.395 24.0328 13.7037 23.2683 13.1355 22.4151C11.973 20.6892 10.6718 17.691 11.073 13.2107C11.0858 13.0684 11.1389 12.9326 11.2262 12.8194C11.3135 12.7062 11.4313 12.6204 11.5658 12.5719C11.7002 12.5234 11.8457 12.5144 11.9852 12.5458C12.1246 12.5773 12.2521 12.648 12.3527 12.7495C12.3855 12.7823 15.4727 15.8526 19.2471 16.8482V16.2773C19.2457 15.6786 19.364 15.0857 19.5952 14.5334C19.8265 13.9812 20.1658 13.4808 20.5934 13.0617C21.0086 12.647 21.5026 12.3198 22.0464 12.0992C22.5901 11.8786 23.1726 11.7691 23.7593 11.7773C24.5464 11.785 25.3181 11.9963 25.9993 12.3906C26.6806 12.7849 27.2483 13.3487 27.6471 14.0273H30.4999C30.6483 14.0272 30.7935 14.0711 30.9169 14.1535C31.0404 14.2359 31.1366 14.3531 31.1934 14.4902C31.2502 14.6273 31.2651 14.7782 31.2361 14.9238C31.2071 15.0693 31.1356 15.203 31.0306 15.3079Z" fill="#2F797B"/>
</svg>
